<svg fill="#daa520" xmlns="http://www.w3.org/2000/svg"  viewBox="0 0 50 50" width="40px" height="auto"><path d="M41.99756,25.48157a.98817.98817,0,0,0-.06421-.31964c-.01-.02765-.02081-.05323-.0332-.0799a.99145.99145,0,0,0-.179-.27161l-.00964-.01263a.99755.99755,0,0,0-.21051-.16351c-.02594-.015-.05463-.02118-.08149-.03363-.01306-.00611-.02124-.01789-.03472-.0235L36,22.3335V9c0-.01117-.004-.02148-.00433-.03259-.00031-.01013.003-.01972.00238-.02991-.00183-.03-.01331-.05719-.01776-.08655a.96092.96092,0,0,0-.41712-.66852c-.02136-.01471-.03851-.03405-.06122-.04718-.01971-.01147-.04181-.01587-.06207-.02587-.01935-.00959-.035-.02436-.05511-.03272L28,5.00269V3.5c0-.00909-.00317-.01752-.00342-.02655-.00024-.00873.00287-.01691.00244-.0257-.00146-.02716-.0122-.05157-.0158-.07818a.99135.99135,0,0,0-.03406-.16834,1.27789,1.27789,0,0,0-.116-.24273.98024.98024,0,0,0-.06744-.0915.99085.99085,0,0,0-.10828-.11053.971.971,0,0,0-.09216-.07477c-.01422-.00982-.02509-.02313-.03986-.03229a.98464.98464,0,0,0-.104-.0473c-.0243-.01147-.04438-.02905-.06983-.03863l-4-1.5a1.01289,1.01289,0,0,0-.79883.042l-7,3.5A.99985.99985,0,0,0,15,5.5V7.173l-5.47363,2.9466L9.511,10.1308c-.007.0039-.0149.00525-.02179.00934a.98607.98607,0,0,0-.10828.08526.82012.82012,0,0,0-.30823.42194c-.01141.03-.02783.05762-.03637.08868a.9964.9964,0,0,0-.02961.21259c-.00085.01648-.00671.03186-.00677.04846l.00018.00147L9,11v8.63184L6.55273,20.85547A.99985.99985,0,0,0,6,21.75v4.5a.99985.99985,0,0,0,.55273.89453L8,27.86816V31a.99985.99985,0,0,0,.55273.89453L9,32.11816V41a1.00066,1.00066,0,0,0,.52148.87793l11,6a.982.982,0,0,0,.15253.05988c.02619.00909.05072.02355.07739.03039a.99142.99142,0,0,0,.51252-.00384c.02484-.00678.04742-.02155.07177-.03034a.9855.9855,0,0,0,.175-.07416l.00214-.00171.00177-.00073,5.51788-3.31451L29.59961,45.666c.01355.006.02869.0036.04242.00891a.92576.92576,0,0,0,.63525.03485c.02454-.00714.04651-.02167.07056-.0307a.98045.98045,0,0,0,.1756-.07654l11-6.75A1.00141,1.00141,0,0,0,42,38V25.5l-.00024-.002ZM29,39v4.22119l-2-.875v-3.772l11.03613-6.438.874.437-9.41895,5.56592A.99922.99922,0,0,0,29,39ZM27,18v2.66663L24.5,22V19.25Zm-1-12.326V7.65137l-5,2.67822V7.61816l5-2.5ZM13.27966,26.29132c-.02484-.00726-.05041-.00781-.07562-.01306a.991.991,0,0,0-.18414-.02551L13,26.25c-.00977,0-.01874.00641-.0285.00671a.99366.99366,0,0,0-.41877.09876L12,26.63184V23.86816l4-2V30.165L14,31.29V27.25a.99407.99407,0,0,0-.72034-.95868Zm25.46521-.64777L36,27.22168V24.49982ZM17,6.11816l6.05762-3.0288,1.44378.5418L19.55273,6.10547A.99985.99985,0,0,0,19,7v3.38184l-2-1Zm-9,16.25,5.05762-2.5288,1.44378.5418-3.94867,1.97431A.99985.99985,0,0,0,10,23.25v3.38184l-.55273-.27637L8,25.63184Zm2.55273,6.77637c.01276.00635.02735.00379.04029.00952a.99293.99293,0,0,0,.38971.09186c.00592.00012.01135.00409.01727.00409.03192,0,.063-.01007.09479-.01312a.99521.99521,0,0,0,.14184-.01966,682.95128,682.95128,0,0,0,.21064-.07269L12,28.86816v2.51368l-2-1V28.86816Z"/></svg>